<mxfile host="app.diagrams.net" agent="Mozilla/5.0 (X11; Ubuntu; Linux x86_64; rv:131.0) Gecko/20100101 Firefox/131.0" version="24.8.2">
  <diagram name="Page-1" id="s3RLJQr6z-cw662zHoDx">
    <mxGraphModel dx="1364" dy="758" grid="1" gridSize="10" guides="1" tooltips="1" connect="1" arrows="1" fold="1" page="1" pageScale="1" pageWidth="850" pageHeight="1100" math="0" shadow="0">
      <root>
        <mxCell id="0" />
        <mxCell id="1" parent="0" />
        <mxCell id="PjgpE9OQRIrXoGsYb-kT-7" value="" style="edgeStyle=orthogonalEdgeStyle;rounded=0;orthogonalLoop=1;jettySize=auto;html=1;" edge="1" parent="1" source="PjgpE9OQRIrXoGsYb-kT-1" target="PjgpE9OQRIrXoGsYb-kT-4">
          <mxGeometry relative="1" as="geometry" />
        </mxCell>
        <mxCell id="PjgpE9OQRIrXoGsYb-kT-1" value="app1" style="rounded=0;whiteSpace=wrap;html=1;fillColor=#dae8fc;strokeColor=#6c8ebf;" vertex="1" parent="1">
          <mxGeometry x="160" y="100" width="120" height="60" as="geometry" />
        </mxCell>
        <mxCell id="PjgpE9OQRIrXoGsYb-kT-6" value="" style="edgeStyle=orthogonalEdgeStyle;rounded=0;orthogonalLoop=1;jettySize=auto;html=1;" edge="1" parent="1" source="PjgpE9OQRIrXoGsYb-kT-2" target="PjgpE9OQRIrXoGsYb-kT-4">
          <mxGeometry relative="1" as="geometry" />
        </mxCell>
        <mxCell id="PjgpE9OQRIrXoGsYb-kT-2" value="app2" style="rounded=0;whiteSpace=wrap;html=1;fillColor=#d5e8d4;strokeColor=#82b366;" vertex="1" parent="1">
          <mxGeometry x="400" y="100" width="120" height="60" as="geometry" />
        </mxCell>
        <mxCell id="PjgpE9OQRIrXoGsYb-kT-8" value="" style="edgeStyle=orthogonalEdgeStyle;rounded=0;orthogonalLoop=1;jettySize=auto;html=1;" edge="1" parent="1" source="PjgpE9OQRIrXoGsYb-kT-3" target="PjgpE9OQRIrXoGsYb-kT-4">
          <mxGeometry relative="1" as="geometry" />
        </mxCell>
        <mxCell id="PjgpE9OQRIrXoGsYb-kT-3" value="app3" style="rounded=0;whiteSpace=wrap;html=1;fillColor=#ffe6cc;strokeColor=#d79b00;" vertex="1" parent="1">
          <mxGeometry x="640" y="100" width="120" height="60" as="geometry" />
        </mxCell>
        <mxCell id="PjgpE9OQRIrXoGsYb-kT-9" style="edgeStyle=orthogonalEdgeStyle;rounded=0;orthogonalLoop=1;jettySize=auto;html=1;exitX=0.5;exitY=0;exitDx=0;exitDy=0;entryX=0.5;entryY=1;entryDx=0;entryDy=0;" edge="1" parent="1" source="PjgpE9OQRIrXoGsYb-kT-4" target="PjgpE9OQRIrXoGsYb-kT-2">
          <mxGeometry relative="1" as="geometry" />
        </mxCell>
        <mxCell id="PjgpE9OQRIrXoGsYb-kT-10" style="edgeStyle=orthogonalEdgeStyle;rounded=0;orthogonalLoop=1;jettySize=auto;html=1;exitX=0.5;exitY=0;exitDx=0;exitDy=0;" edge="1" parent="1" source="PjgpE9OQRIrXoGsYb-kT-4">
          <mxGeometry relative="1" as="geometry">
            <mxPoint x="220" y="160" as="targetPoint" />
          </mxGeometry>
        </mxCell>
        <mxCell id="PjgpE9OQRIrXoGsYb-kT-11" style="edgeStyle=orthogonalEdgeStyle;rounded=0;orthogonalLoop=1;jettySize=auto;html=1;exitX=0.5;exitY=0;exitDx=0;exitDy=0;entryX=0.5;entryY=1;entryDx=0;entryDy=0;" edge="1" parent="1" source="PjgpE9OQRIrXoGsYb-kT-4" target="PjgpE9OQRIrXoGsYb-kT-3">
          <mxGeometry relative="1" as="geometry" />
        </mxCell>
        <mxCell id="PjgpE9OQRIrXoGsYb-kT-12" value="" style="edgeStyle=orthogonalEdgeStyle;rounded=0;orthogonalLoop=1;jettySize=auto;html=1;" edge="1" parent="1" source="PjgpE9OQRIrXoGsYb-kT-4" target="PjgpE9OQRIrXoGsYb-kT-5">
          <mxGeometry relative="1" as="geometry" />
        </mxCell>
        <mxCell id="PjgpE9OQRIrXoGsYb-kT-4" value="Linux Socket Layer" style="rounded=0;whiteSpace=wrap;html=1;fillColor=#fff2cc;strokeColor=#d6b656;" vertex="1" parent="1">
          <mxGeometry x="120" y="240" width="680" height="40" as="geometry" />
        </mxCell>
        <mxCell id="PjgpE9OQRIrXoGsYb-kT-13" style="edgeStyle=orthogonalEdgeStyle;rounded=0;orthogonalLoop=1;jettySize=auto;html=1;exitX=0.5;exitY=0;exitDx=0;exitDy=0;entryX=0.5;entryY=1;entryDx=0;entryDy=0;" edge="1" parent="1" source="PjgpE9OQRIrXoGsYb-kT-5" target="PjgpE9OQRIrXoGsYb-kT-4">
          <mxGeometry relative="1" as="geometry" />
        </mxCell>
        <mxCell id="PjgpE9OQRIrXoGsYb-kT-5" value="vcan0" style="rounded=0;whiteSpace=wrap;html=1;fillColor=#f8cecc;strokeColor=#b85450;" vertex="1" parent="1">
          <mxGeometry x="400" y="340" width="120" height="60" as="geometry" />
        </mxCell>
      </root>
    </mxGraphModel>
  </diagram>
</mxfile>
